<svg xmlns="http://www.w3.org/2000/svg"  viewBox="0 0 128 128" width="64px" height="64px"><path fill="#e4e4e7" d="M101,1H62c-7.2,0-13,5.8-13,13v20c0,3.9-3.1,7-7,7H23.8c-2.1,0-3.8-1.7-3.8-3.8c0-1.7-1.3-3-3-3s-3,1.3-3,3 V124c0,1.7,1.3,3,3,3h1c0.8,0,1.6-0.3,2.1-0.9l7.9-7.9l7.9,7.9c1.2,1.2,3.1,1.2,4.2,0l7.9-7.9l7.9,7.9c1.2,1.2,3.1,1.2,4.2,0 l7.9-7.9l7.9,7.9c1.2,1.2,3.1,1.2,4.2,0l7.9-7.9l7.9,7.9c0.6,0.6,1.4,0.9,2.1,0.9s1.5-0.3,2.1-0.9l10-10c0.6-0.6,0.9-1.3,0.9-2.1 V87c1.7,0,3-1.3,3-3V14C114,6.8,108.2,1,101,1z"/><path fill="#aeb3b7" d="M72,1H62c-7.2,0-13,5.8-13,13v20c0,3.9-3.1,7-7,7H20.8c-2.1,0-3.8-1.7-3.8-3.8c0-1.7-1.3-3-3-3s-3,1.3-3,3v15 c0,5.4,4.4,9.8,9.8,9.8H52c7.2,0,13-5.8,13-13V14c0-3.9,3.1-7,7-7c1.7,0,3-1.3,3-3S73.7,1,72,1z"/><path fill="#fff" d="M58.7,2.4L61,2l-12,8v24c0,5.5-4.5,10-10,10H20.8c-3.8,0-6.8-3.1-6.8-6.8v0c0-2,0.9-3.9,2.4-5.2l25.1-21.5 C46.4,6.2,52.4,3.4,58.7,2.4z"/><path fill="#444b54" d="M111,87c-1.7,0-3-1.3-3-3V14c0-3.9-3.1-7-7-7H59c-3.9,0-7,3.1-7,7v20c0,7.2-5.8,13-13,13H20.8 c-5.4,0-9.8-4.4-9.8-9.8c0-2.9,1.3-5.6,3.4-7.5L33,13.7c1.3-1.1,3.2-0.9,4.2,0.3c1.1,1.3,0.9,3.2-0.3,4.2l-18.6,16 C17.5,35,17,36,17,37.2c0,2.1,1.7,3.8,3.8,3.8H39c3.9,0,7-3.1,7-7V14c0-7.2,5.8-13,13-13h42c7.2,0,13,5.8,13,13v70 C114,85.7,112.7,87,111,87z"/><path fill="#444b54" d="M63.1,89.4c-4.4,0-7.4-3.8-10.1-7.1c-1.3-1.7-3.3-4.1-4.5-4.4c-1,0.9-3.2,3.9-4.7,6c-0.6,0.8-1.1,1.6-1.7,2.4 c-1,1.3-2.9,1.6-4.2,0.6c-1.3-1-1.6-2.9-0.6-4.2c0.6-0.8,1.1-1.5,1.7-2.3c3.9-5.5,5.9-8.1,8.5-8.4c4.4-0.6,7.5,3.2,10.2,6.6 c1.8,2.2,4.1,5,5.6,4.9c1.1-0.1,2.5-1.5,3.9-2.8c2.2-2.1,5-4.8,8.9-4.4c1.1,0.1,2.2,0.4,3.3,1c1.5,0.7,2.1,2.5,1.3,4 s-2.5,2.1-4,1.3c-0.5-0.2-0.9-0.4-1.2-0.4c-1.1-0.1-2.6,1.3-4.1,2.8c-2,1.9-4.2,4.1-7.4,4.4C63.7,89.4,63.4,89.4,63.1,89.4z M48.8,77.7L48.8,77.7z"/><circle cx="90" cy="86" r="3" fill="#444b54"/></svg>